# xmcd
#
# Track frame offsets:
#        150
#        17877
#        34852
#
# Disc length: 700 seconds
#
# Revision: 0
# Processed by: cddbd v1.5.1PL0 Copyright (c) Steve Scherf et al.
# Submitted via: ExactAudioCopy v0.95a3
#
DISCID=1d02ba03
DTITLE=babamania - Doobee Doowoop Communication
DYEAR=2004
DGENRE=
TTITLE0=Doobee Doowoop Communication
TTITLE1=THIS IS MY HOUSE
TTITLE2=Doobee Doowoop Communication (INSTRUMENTAL)
EXTD=
EXTT0=
EXTT1=
EXTT2=
PLAYORDER=
